<svg width="32" height="32" viewBox="0 0 32 32" fill="none" xmlns="http://www.w3.org/2000/svg">
  <!-- Broom handle -->
  <rect x="14" y="3" width="4" height="14" rx="1.5" fill="#0d9488"/>
  <!-- Broom head binding -->
  <rect x="11" y="16" width="10" height="3" rx="1" fill="#0d9488"/>
  <!-- Broom bristles -->
  <path d="M9 19 L23 19 L21 29 L11 29 Z" fill="#0d9488"/>
  <line x1="12" y1="20" x2="12" y2="27" stroke="white" stroke-width="1" opacity="0.4"/>
  <line x1="14.5" y1="20" x2="14" y2="28" stroke="white" stroke-width="1" opacity="0.4"/>
  <line x1="17" y1="20" x2="17" y2="28" stroke="white" stroke-width="1" opacity="0.4"/>
  <line x1="19.5" y1="20" x2="20" y2="28" stroke="white" stroke-width="1" opacity="0.4"/>
  <!-- Sparkles for "clean" effect -->
  <path d="M6 8 L7 10 L9 11 L7 12 L6 14 L5 12 L3 11 L5 10 Z" fill="#2dd4bf"/>
  <path d="M26 6 L26.5 7.5 L28 8 L26.5 8.5 L26 10 L25.5 8.5 L24 8 L25.5 7.5 Z" fill="#2dd4bf"/>
  <circle cx="25" cy="15" r="1.5" fill="#2dd4bf" opacity="0.8"/>
</svg>
